<!-- icon666.com - MILLIONS vector ICONS FREE --><svg id="Layer_1" viewBox="0 0 64 64" xmlns="http://www.w3.org/2000/svg"><g><g><path d="m32 50c-12.507 0-22.746-10.83-26.568-15.486-1.188-1.489-1.188-3.538-.019-5.005 3.841-4.679 14.083-15.509 26.587-15.509 12.51 0 22.747 10.83 26.567 15.486 1.188 1.488 1.189 3.537.021 5.005-3.842 4.679-14.084 15.509-26.588 15.509zm0-32c-11.1 0-20.776 10.734-23.477 14.024 2.701 3.242 12.375 13.976 23.477 13.976 11.1 0 20.776-10.734 23.477-14.024-2.701-3.242-12.372-13.976-23.477-13.976z"></path></g><g><path d="m32 41c-4.962 0-9-4.037-9-9 0-4.962 4.038-9 9-9 4.963 0 9 4.038 9 9 0 4.963-4.037 9-9 9zm0-14c-2.757 0-5 2.243-5 5s2.243 5 5 5 5-2.243 5-5-2.243-5-5-5z"></path></g></g></svg>