<!-- icon666.com - MILLIONS vector ICONS FREE --><svg viewBox="0 0 24 24" xmlns="http://www.w3.org/2000/svg"><path d="m12 19.5a13.731 13.731 0 0 0 11.938-7.259.5.5 0 0 0 0-.482 13.731 13.731 0 0 0 -11.938-7.259 13.731 13.731 0 0 0 -11.938 7.259.5.5 0 0 0 0 .482 13.731 13.731 0 0 0 11.938 7.259zm0-14a12.711 12.711 0 0 1 10.926 6.5 12.711 12.711 0 0 1 -10.926 6.5 12.711 12.711 0 0 1 -10.926-6.5 12.711 12.711 0 0 1 10.926-6.5zm0 10.5a4 4 0 1 0 -4-4 4 4 0 0 0 4 4zm0-7a3 3 0 1 1 -3 3 3 3 0 0 1 3-3z"></path></svg>